# xmcd
# 
# Track frame offsets:
#     150
#     15622
#     30734
#     46315
#     68586
#     89869
#     113474
#     132077
#     152877
#     175777
#     193369
# 
# Disc length: 2876
# 
# Revision: 5
# Processed by: cddbd v1.5.2PL0 Copyright (c) Steve Scherf et al.
# Submitted via: BonkEnc v1.0.8
# 
DISCID=8f0b3a0b
DTITLE=Zucchero - Shake
DYEAR=2001
DGENRE=Musica Italiana
TTITLE0=Sento Le Campane
TTITLE1=Music In Me
TTITLE2=Porca L'Oca
TTITLE3=Ali D'Oro
TTITLE4=Ahum
TTITLE5=Scintille
TTITLE6=Balia (Sexy Thing)
TTITLE7=Dindondio
TTITLE8=Rossa Mela Della Sera
TTITLE9=Shake
TTITLE10=Tobia
EXTD=
EXTT0=
EXTT1=
EXTT2=
EXTT3=
EXTT4=
EXTT5=
EXTT6=
EXTT7=
EXTT8=
EXTT9=
EXTT10=
PLAYORDER=
